<?xml version="1.0" encoding="UTF-8"?>
<svg id="Calque_1" data-name="Calque 1" xmlns="http://www.w3.org/2000/svg" viewBox="0 0 383.65 184.89">
  <defs>
    <style>
      .cls-1 {
        fill-rule: evenodd;
      }

      .cls-1, .cls-2 {
        fill: #e94e1b;
      }

      .cls-3 {
        letter-spacing: 0em;
      }

      .cls-4 {
        font-family: Borney-Regular, Borney;
        font-size: 69.37px;
      }

      .cls-4, .cls-5 {
        fill: #fff;
      }

      .cls-6 {
        letter-spacing: -.03em;
      }

      .cls-7 {
        letter-spacing: -.02em;
      }

      .cls-8 {
        letter-spacing: -.02em;
      }

      .cls-9 {
        letter-spacing: -.01em;
      }

      .cls-10 {
        letter-spacing: -.01em;
      }

      .cls-11 {
        letter-spacing: -.02em;
      }

      .cls-5 {
        font-family: Outfit-Regular, Outfit;
        font-size: 12px;
        font-variation-settings: 'wght' 400;
      }

      .cls-12 {
        letter-spacing: 0em;
      }
    </style>
  </defs>
  <text class="cls-4" transform="translate(155.63 112.3)"><tspan x="0" y="0">Digal</tspan></text>
  <g>
    <polygon class="cls-2" points="127.64 76.63 127.64 112.02 122.42 112.02 122.42 119.85 135.47 119.85 135.47 76.63 127.64 76.63"/>
    <polygon class="cls-2" points="111.11 76.63 111.11 125.94 105.89 125.94 105.89 133.77 118.94 133.77 118.94 76.63 111.11 76.63"/>
    <polygon class="cls-2" points="94.58 76.63 94.58 140.15 68.1 140.15 68.1 147.98 102.41 147.98 102.41 76.63 94.58 76.63"/>
    <polygon class="cls-2" points="43.56 109 43.56 48.5 48.78 48.5 48.78 40.67 35.73 40.67 35.73 109 43.56 109"/>
    <polygon class="cls-2" points="60.09 109 60.09 34.29 65.31 34.29 65.31 26.46 52.26 26.46 52.26 109 60.09 109"/>
    <polygon class="cls-2" points="69.84 34.29 99.22 34.29 99.22 39.22 107.34 39.22 107.34 26.46 69.84 26.46 69.84 34.29"/>
    <polygon class="cls-2" points="69.84 50.82 113.43 50.82 113.43 55.75 121.26 55.75 121.26 42.7 69.84 42.7 69.84 50.82"/>
    <polygon class="cls-2" points="69.84 67.35 127.64 67.35 127.64 72.28 135.47 72.28 135.47 59.52 69.84 59.52 69.84 67.35"/>
  </g>
  <path class="cls-1" d="M39.29,128.73h4.99v4.99h-4.99v-4.99ZM53.27,133.71v-4.99h4.99v4.99h-4.99ZM46.29,128.73h4.99v4.99h-4.99v-4.99ZM39.29,126.73v-4.99h4.99v4.99h-4.99ZM53.27,126.73v-4.99h4.99v4.99h-4.99ZM61.85,132.36v-3.1h3.08v5.81c0,1.78-.7,3.4-1.84,4.6v8.31l-6.23-6.23h-17.55c-3.68,0-6.68-3-6.68-6.68v-14.69c0-3.68,3-6.68,6.68-6.68h18.95c3.68,0,6.68,3,6.68,6.68v5.81h-3.08v-5.81c0-1.98-1.62-3.6-3.6-3.6h-2.86c.02.1.04.21.04.32v1.62c0,.73-.59,1.32-1.32,1.32s-1.32-.59-1.32-1.32v-1.62c0-.11.01-.22.04-.32h-8.1c.03.1.04.21.04.32v1.62c0,.73-.59,1.32-1.32,1.32s-1.32-.59-1.32-1.32v-1.62c0-.11.01-.22.04-.32h-2.86c-1.98,0-3.6,1.62-3.6,3.6v14.69c0,1.98,1.62,3.6,3.6,3.6h18.95c1.98,0,3.6-1.62,3.6-3.6v-2.71ZM46.29,126.73v-4.99h4.99v4.99h-4.99Z"/>
  <text class="cls-5" transform="translate(272.16 126.73)"><tspan class="cls-7" x="0" y="0">L</tspan><tspan x="6.38" y="0">a pl</tspan><tspan class="cls-12" x="25.5" y="0">a</tspan><tspan class="cls-9" x="32.46" y="0">t</tspan><tspan class="cls-10" x="36.7" y="0">e</tspan><tspan class="cls-6" x="42.96" y="0">f</tspan><tspan class="cls-3" x="47.42" y="0">o</tspan><tspan class="cls-11" x="54.2" y="0">r</tspan><tspan x="59.04" y="0">me</tspan><tspan x="0" y="14.4">des CM sé</tspan><tspan class="cls-8" x="53.39" y="14.4">r</tspan><tspan x="58.2" y="14.4">ieux.</tspan></text>
</svg>